# xmcd CD database file
#
# Track frame offsets:
#	300
#	37578
#	79736
#	129501
#	156384
#	208924
#	266338
#
# Disc length: 4342 seconds
#
# Revision: 0
# Processed by: cddbd v1.5.2PL0 Copyright (c) Steve Scherf et al.
# Submitted via: CDex 1.70beta2
#
DISCID=5710f207
DTITLE=Miles Davis - E.S.P
DYEAR=1900
DGENRE=Jazz
TTITLE0=E.S.P.
TTITLE1=Eighty-One
TTITLE2=Little One
TTITLE3=R.J.
TTITLE4=Agitation
TTITLE5=Iris
TTITLE6=Mood
EXTD=
EXTT0=
EXTT1=
EXTT2=
EXTT3=
EXTT4=
EXTT5=
EXTT6=
PLAYORDER=
